<svg width="70" height="78" viewBox="0 0 70 78" fill="none" xmlns="http://www.w3.org/2000/svg">
<g opacity="0.7">
<path d="M35.7805 2.64816L35 2.19754L34.2195 2.64816L3.90862 20.1482L3.12814 20.5988V21.5V56.5V57.4012L3.90862 57.8518L34.2195 75.3518L35 75.8025L35.7805 75.3518L66.0914 57.8518L66.8719 57.4012V56.5V21.5V20.5988L66.0914 20.1482L35.7805 2.64816Z" stroke="white" stroke-width="3.12195"/>
<path d="M11.9511 56.5385V36.1997L18.2113 59.9997L21.3414 61.8107V17.1597L17.0731 19.6797L16.7885 39.8397L11.9511 23.5997L8.25195 25.6632V54.3997L11.9511 56.5385Z" fill="white"/>
<path d="M35.2849 8.48047L25.041 14.6405V63.6405L29.0248 66.4405V41.5205H44.6752V36.4805H29.0248V16.8805L35.2849 13.5205L45.5288 19.6805L47.8052 16.0405L35.2849 8.48047Z" fill="white"/>
<path d="M63.4545 25.8397L49.796 17.1597L47.5195 20.5197L53.2106 24.1597V60.2797L57.4789 57.7597V26.3997L63.4545 30.5997V25.8397Z" fill="white"/>
</g>
</svg>
