<svg width="87" height="70" viewBox="0 0 87 70" fill="none" xmlns="http://www.w3.org/2000/svg">
<path d="M1 39.9318C3.54974 40.8186 10.8442 41.7609 19.6242 38.4352C22.4511 37.9363 29.8675 38.0361 36.9181 42.4261L45.0661 48.0799C46.5627 49.0776 50.4206 50.807 53.8794 49.7428C58.2028 48.4125 62.6926 50.9068 62.1937 53.5674C61.6949 56.228 60.032 57.8909 55.2097 58.7223C51.3518 59.3874 37.7495 55.6737 31.4306 53.7337" stroke="white" stroke-width="2"/>
<path d="M2.66309 63.7104C4.15967 62.8235 8.88223 61.3158 15.7998 62.3801C22.7173 63.4443 33.8697 66.5927 38.5812 68.0338C43.5143 68.9207 56.0081 69.996 66.5174 67.2024C77.0268 64.4088 83.4233 57.3914 85.3079 54.232C85.9176 52.0703 85.574 47.8466 79.3216 48.2456L61.6951 55.2072" stroke="white" stroke-width="2"/>
<circle cx="61.1958" cy="23.6128" r="22.6128" stroke="white" stroke-width="2"/>
<circle cx="61.1958" cy="23.6128" r="13.6333" stroke="white" stroke-width="2"/>
<path d="M63.1176 25.9408C63.1176 25.4457 62.9427 25.0286 62.5929 24.6895C62.2484 24.3504 61.6644 24.0437 60.841 23.7692C59.6946 23.4193 58.8577 22.9646 58.3303 22.4048C57.8082 21.8397 57.5472 21.1239 57.5472 20.2574C57.5472 19.3747 57.8028 18.6508 58.3141 18.0857C58.8308 17.5206 59.5385 17.1842 60.4373 17.0766V15.3086H61.6402V17.0847C62.5444 17.2084 63.2468 17.5879 63.7473 18.223C64.2532 18.858 64.5062 19.7273 64.5062 20.8306H63.0207C63.0207 20.0717 62.8404 19.4689 62.4798 19.0222C62.1192 18.5755 61.6322 18.3521 61.0186 18.3521C60.3781 18.3521 59.8884 18.519 59.5493 18.8527C59.2102 19.181 59.0407 19.6411 59.0407 20.2332C59.0407 20.7821 59.2183 21.2208 59.5735 21.5491C59.9341 21.872 60.5235 22.168 61.3415 22.4371C62.165 22.7008 62.8054 22.9942 63.2629 23.3171C63.7258 23.6346 64.0649 24.006 64.2801 24.4312C64.5008 24.8564 64.6111 25.3542 64.6111 25.9247C64.6111 26.8343 64.3366 27.5662 63.7877 28.1206C63.2441 28.6749 62.4798 29.0032 61.4949 29.1055V30.6475H60.3001V29.1055C59.299 29.014 58.5132 28.6588 57.9427 28.0399C57.3776 27.4155 57.0951 26.5706 57.0951 25.5049H58.5886C58.5886 26.253 58.785 26.8289 59.1779 27.2325C59.5708 27.6362 60.1279 27.838 60.8491 27.838C61.5541 27.838 62.1085 27.6685 62.5121 27.3294C62.9158 26.9904 63.1176 26.5275 63.1176 25.9408Z" fill="white"/>
</svg>
