<svg width="70" height="70" viewBox="0 0 70 70" fill="none" xmlns="http://www.w3.org/2000/svg">
<path fill-rule="evenodd" clip-rule="evenodd" d="M0 35C0 15.7011 15.7011 0 35 0C54.2989 0 70 15.7011 70 35C70 54.2989 54.2989 70 35 70C15.7011 70 0 54.2989 0 35ZM0.729167 35C0.729167 53.8971 16.1029 69.2708 35 69.2708C53.8971 69.2708 69.2708 53.8971 69.2708 35C69.2708 16.1029 53.8971 0.729167 35 0.729167C16.1029 0.729167 0.729167 16.1029 0.729167 35ZM49.2191 35.3703H48.6L46.6736 34.0862L46.6765 33.0632C46.6765 33.0596 46.6743 33.0559 46.6743 33.0523C48.7648 32.5594 50.3274 30.6825 50.3274 28.4432V26.9849C50.3274 26.9652 50.3224 26.9472 50.3174 26.9292L50.3174 26.9291C50.3155 26.9224 50.3137 26.9157 50.3121 26.909V25.8911H50.6614C51.2644 25.8911 51.7551 25.4004 51.7551 24.7974V22.6099C51.7551 22.0069 51.2644 21.5161 50.6614 21.5161H50.3128H50.2953C50.1123 18.2619 47.4144 15.6689 44.1149 15.6689C40.8154 15.6689 38.1182 18.2619 37.9345 21.5161H37.917H37.5524C36.9494 21.5161 36.4587 22.0069 36.4587 22.6099V24.7974C36.4587 25.4004 36.9494 25.8911 37.5524 25.8911H37.917V26.9849V27.655V28.4432C37.917 30.6876 39.4862 32.5681 41.584 33.0559C41.584 33.0567 41.5838 33.0572 41.5836 33.0578C41.5834 33.0583 41.5832 33.0588 41.5832 33.0596L41.5803 34.0695L39.6291 35.3703H38.2816C37.0588 35.3703 35.8702 35.6219 34.7386 36.1024C33.4778 35.1887 31.9335 34.6433 30.2607 34.6433H27.7036L27.7094 33.0632L29.8262 31.7398C30.7923 31.1368 31.3691 30.097 31.3691 28.958V28.3863C31.3691 28.3667 31.3641 28.3486 31.3591 28.3307C31.3572 28.3239 31.3554 28.3173 31.3538 28.3105V27.3517H31.703C32.3061 27.3517 32.7968 26.8609 32.7968 26.2579V24.0704C32.7968 23.4674 32.3061 22.9767 31.703 22.9767H31.5805L31.967 21.0465C32.1179 20.2933 32.0428 19.5795 31.7512 18.983C31.1948 17.8484 30.0653 17.144 28.8031 17.144H27.3215H22.9691H21.4874C20.2252 17.144 19.0957 17.8492 18.5394 18.983C18.2477 19.5787 18.1726 20.2926 18.3236 21.0458L18.71 22.9767H18.5941C17.9911 22.9767 17.5003 23.4674 17.5003 24.0704V26.2579C17.5003 26.8609 17.9911 27.3517 18.5941 27.3517H18.9587V28.3863V28.9551C18.9587 30.0948 19.5362 31.136 20.5038 31.7398L22.5994 33.045L22.606 34.6426H19.3232C15.1014 34.6426 11.667 38.077 11.667 42.2988V53.9655C11.667 54.1668 11.8303 54.3301 12.0316 54.3301H37.5524C37.5561 54.3301 37.559 54.3279 37.5633 54.3279H41.8997C41.9033 54.3279 41.9063 54.3301 41.9099 54.3301C41.9117 54.3301 41.9132 54.3296 41.9149 54.3291L41.9173 54.3284C41.9184 54.3281 41.9196 54.3279 41.9208 54.3279H46.263C46.2649 54.3279 46.2665 54.3285 46.2681 54.329C46.2698 54.3295 46.2714 54.3301 46.2732 54.3301C46.2769 54.3301 46.2798 54.3279 46.2842 54.3279H57.9691C58.1703 54.3279 58.3337 54.1646 58.3337 53.9633V44.4842C58.3337 39.4587 54.2452 35.3703 49.2191 35.3703ZM48.1253 35.9296V38.6989L46.667 37.727V36.3146L46.6714 34.9605L48.1253 35.9296ZM45.9232 39.9947L45.574 40.4613C45.2262 40.9258 44.6946 41.192 44.1149 41.192C43.5352 41.192 43.0029 40.9258 42.6558 40.4613L42.2883 39.9699L42.2891 39.256L42.6558 39.746C43.0037 40.2105 43.5359 40.4759 44.1149 40.4759C44.6946 40.4759 45.2269 40.2105 45.5747 39.746L45.924 39.2794L45.9232 39.9947ZM42.2869 41.1263C42.766 41.6266 43.4091 41.9211 44.1149 41.9211C44.8098 41.9211 45.4449 41.6346 45.9218 41.1482L45.9094 53.5995H42.2745L42.2869 41.1263ZM47.0257 26.621C46.6925 26.1792 46.1682 25.8882 45.574 25.8882H45.205C45.1948 25.6964 45.0388 25.5426 44.8441 25.5426C44.6428 25.5426 44.4795 25.7059 44.4795 25.9072V26.255C44.4795 26.4555 44.3162 26.6196 44.1149 26.6196C43.9137 26.6196 43.7503 26.4555 43.7503 26.255V26.2535V26.2521V25.9086C43.7503 25.7074 43.587 25.5441 43.3857 25.5441C43.1911 25.5441 43.0357 25.6972 43.0248 25.8897H42.6566C42.0616 25.8897 41.5373 26.1799 41.2048 26.6225C41.2026 26.6225 41.2004 26.621 41.1982 26.621H40.1045C39.3002 26.621 38.6462 25.967 38.6462 25.1627V23.3398V22.246H39.4424C39.4016 22.3598 39.3753 22.4815 39.3753 22.6099V23.339C39.3753 24.3446 40.1935 25.162 41.1982 25.162H41.9274C42.9322 25.162 43.7503 24.3446 43.7503 23.339V23.2618C43.8626 22.9402 44.3038 22.8585 44.4795 23.2669V23.339C44.4795 24.3446 45.2976 25.162 46.3024 25.162H47.0316C48.0364 25.162 48.8545 24.3446 48.8545 23.339V22.6099C48.8545 22.4815 48.8282 22.3598 48.7874 22.2453H49.5837V23.339V25.162C49.5837 25.9662 48.9296 26.6203 48.1253 26.6203H47.0316C47.0305 26.6203 47.0296 26.6205 47.0287 26.6207L47.0277 26.6208L47.0257 26.621ZM42.6566 22.2453C42.8578 22.2453 43.0212 22.4094 43.0212 22.6099V23.339C43.0212 23.9421 42.5304 24.4328 41.9274 24.4328H41.1982C40.5952 24.4328 40.1045 23.9421 40.1045 23.339V22.6099C40.1045 22.4094 40.2678 22.2453 40.4691 22.2453H40.8337H42.6566ZM47.3962 22.2453H47.7607C47.962 22.2453 48.1253 22.4094 48.1253 22.6099V23.339C48.1253 23.9421 47.6346 24.4328 47.0316 24.4328H46.3024C45.6994 24.4328 45.2087 23.9421 45.2087 23.339V22.6099C45.2087 22.4094 45.372 22.2453 45.5732 22.2453H47.3962ZM51.0267 22.6099V24.7974C51.0267 24.9979 50.8633 25.162 50.6621 25.162H50.3128V23.339V22.2453H50.6621C50.8633 22.2453 51.0267 22.4086 51.0267 22.6099ZM44.1149 16.3981C47.0126 16.3981 49.3839 18.6644 49.5662 21.5161H47.7607H47.3962H45.5732C45.0665 21.5161 44.6428 21.8639 44.5196 22.3328C44.392 22.281 44.2578 22.2438 44.1149 22.2438C43.972 22.2438 43.8378 22.2788 43.7102 22.3313C43.5863 21.8639 43.1633 21.5161 42.6566 21.5161H40.8337H40.4691H38.6637C38.846 18.6644 41.2172 16.3981 44.1149 16.3981ZM37.5524 25.162C37.3512 25.162 37.1878 24.9979 37.1878 24.7974V22.6099C37.1878 22.4094 37.3512 22.2453 37.5524 22.2453H37.917V23.339V25.162H37.5524ZM38.6462 28.4432V27.655V26.9849V26.7807C39.0341 27.1307 39.5423 27.3495 40.1045 27.3495H40.8701C40.8468 27.4669 40.8337 27.5879 40.8337 27.7119V27.714C40.8337 27.9153 40.997 28.0779 41.1982 28.0779C41.3995 28.0779 41.5628 27.9131 41.5628 27.7119C41.5628 27.1088 42.0536 26.6181 42.6566 26.6181H43.0875C43.2377 27.0425 43.6395 27.3495 44.1149 27.3495C44.5903 27.3495 44.9921 27.0425 45.1423 26.6181H45.5732C46.1763 26.6181 46.667 27.1088 46.667 27.7119V27.714C46.667 27.9153 46.8303 28.0779 47.0316 28.0779C47.2328 28.0779 47.3962 27.9131 47.3962 27.7119C47.3962 27.5879 47.383 27.4669 47.3597 27.3495H48.1253C48.6875 27.3495 49.1957 27.13 49.5837 26.7807V27.655C49.5837 27.6746 49.5887 27.6927 49.5937 27.7107L49.5937 27.7108L49.5975 27.7247L49.599 27.7308V28.4432C49.599 30.654 47.8001 32.4536 45.5886 32.4536H42.6566C40.445 32.4536 38.6462 30.654 38.6462 28.4432ZM42.6566 33.1828H45.5886C45.7009 33.1828 45.8114 33.1746 45.9217 33.1664H45.9217H45.9218H45.9218H45.9219L45.9221 33.1664L45.9473 33.1646L45.9437 34.2539C45.9437 34.2566 45.943 34.2592 45.9421 34.2617L45.9393 34.2689C45.9389 34.2702 45.9385 34.2715 45.9382 34.2729C45.938 34.2741 45.9378 34.2753 45.9378 34.2766V36.3095L45.9327 37.8794C45.9321 37.8855 45.9304 37.8912 45.9288 37.8969C45.9267 37.904 45.9247 37.911 45.9247 37.9187V38.0602L44.9899 39.3093C44.5728 39.8663 43.6555 39.8663 43.2385 39.3093L42.2971 38.0507L42.3117 33.1653L42.3571 33.1685H42.3572H42.3572H42.3573H42.3573H42.3573C42.4566 33.1757 42.556 33.1828 42.6566 33.1828ZM40.1045 35.9296L41.5628 34.9576V37.727L40.1045 38.6989V35.9296ZM34.4943 36.8286C34.6912 36.981 34.8793 37.1422 35.0565 37.3121L35.0661 37.3206L35.0697 37.3238C35.075 37.3285 35.0802 37.3332 35.0849 37.3383C35.2745 37.5221 35.4531 37.7146 35.6194 37.9158C35.6238 37.9209 35.6267 37.926 35.6311 37.9311C35.7791 38.1112 35.9147 38.3001 36.0423 38.4926C36.0799 38.5497 36.1151 38.6089 36.1502 38.6681L36.1503 38.6682L36.1503 38.6683C36.1663 38.6951 36.1822 38.7219 36.1983 38.7485C36.2705 38.8681 36.3413 38.9892 36.4054 39.1131C36.4587 39.2152 36.5075 39.3195 36.5556 39.4245C36.6089 39.5411 36.6599 39.6593 36.7066 39.7796C36.7489 39.8875 36.7897 39.9961 36.8262 40.1062C36.8692 40.2346 36.9064 40.3658 36.9414 40.4971L36.9504 40.53L36.9504 40.53L36.9504 40.5301L36.9504 40.5301L36.9504 40.5302L36.9504 40.5303C36.9759 40.6235 37.0014 40.7168 37.0223 40.8113C37.0558 40.9659 37.0806 41.1234 37.104 41.2809C37.1086 41.3117 37.1137 41.3423 37.1189 41.3729L37.1189 41.373C37.1284 41.4294 37.1379 41.4858 37.1441 41.5434C37.1718 41.7928 37.1878 42.0451 37.1878 42.3003V53.6017H34.2646C34.2652 53.5966 34.2666 53.5919 34.2679 53.5874L34.2679 53.5873C34.2695 53.5814 34.2712 53.5757 34.2712 53.5696V43.7579C34.2712 43.5567 34.1078 43.3933 33.9066 43.3933C33.7053 43.3933 33.542 43.5567 33.542 43.7579V53.5696C33.542 53.575 33.5431 53.58 33.5444 53.5849L33.5455 53.5885C33.5467 53.5928 33.5479 53.5971 33.5486 53.6017H29.2786L31.3552 43.1141C31.3742 43.0185 31.3538 42.9194 31.2991 42.8392L30.0398 40.9798L32.0013 39.7847C32.1639 39.6855 32.2229 39.4777 32.1362 39.3078L30.128 35.3725H30.2607C31.8554 35.3725 33.3218 35.9194 34.4943 36.8286ZM21.1476 40.7895C21.1265 40.6918 21.066 40.6079 20.9806 40.5561L18.9805 39.3384L21.004 35.3725H22.5979L22.6045 53.5696C22.6045 53.5764 22.6062 53.5825 22.608 53.5885C22.6088 53.5912 22.6095 53.5939 22.6101 53.5967L22.6111 53.6017H21.7798L19.7053 43.1221L21.0937 41.0717C21.1491 40.9893 21.1688 40.8872 21.1476 40.7895ZM23.3286 36.9293C23.7916 37.4076 24.4376 37.708 25.1551 37.708C25.8748 37.708 26.523 37.4047 26.9861 36.9234V37.8611C25.8974 38.5939 24.4194 38.5961 23.3293 37.8699L23.3286 36.9293ZM26.9729 35.161C26.9729 36.1636 26.1577 36.9788 25.1551 36.9788C24.1525 36.9788 23.3373 36.1636 23.3373 35.1596L23.33 33.4737C23.9046 33.7698 24.5353 33.9273 25.169 33.9273C25.7924 33.9273 26.4122 33.7756 26.9788 33.4891L26.9729 35.161ZM23.3293 38.723C23.8893 39.0103 24.5076 39.1627 25.1515 39.1627C25.7997 39.1627 26.4224 39.0081 26.9861 38.7164L26.9817 53.5696C26.9817 53.5764 26.9834 53.5825 26.9852 53.5885L26.9873 53.5963L26.9882 53.6017H23.3271C23.3277 53.5966 23.3291 53.5919 23.3304 53.5873L23.3314 53.5836L23.3327 53.5781C23.3333 53.5753 23.3337 53.5725 23.3337 53.5696L23.3293 38.723ZM27.7108 53.5696L27.716 35.3725H29.3099L31.3333 39.3384L29.3332 40.5561C29.2479 40.6079 29.1881 40.6925 29.1663 40.7895C29.1451 40.8872 29.1648 40.9885 29.221 41.0717L30.6093 43.1221L28.5348 53.6017H27.7036C27.7042 53.5965 27.7057 53.5917 27.7072 53.587L27.7094 53.5797C27.7103 53.5764 27.7108 53.573 27.7108 53.5696ZM31.7038 23.7058C31.905 23.7058 32.0683 23.8699 32.0683 24.0704V26.2579C32.0683 26.4584 31.905 26.6225 31.7038 26.6225H31.3545V25.8933V24.1061L31.4347 23.7058H31.7038ZM19.1935 19.3031C19.6266 18.4208 20.5052 17.8725 21.4874 17.8725H22.9691H27.3207H28.8024C29.7846 17.8725 30.6632 18.4208 31.0956 19.3031C31.3749 19.8733 31.3348 20.488 31.2517 20.9029L30.777 23.2756L30.2381 22.7659C30.0208 22.5588 29.8962 22.2701 29.8962 21.9711V21.8829C29.8962 21.2799 29.4054 20.7892 28.8024 20.7892H21.5107C20.9077 20.7892 20.417 21.2799 20.417 21.8829V21.9937C20.417 22.2861 20.3032 22.561 20.0962 22.7681L19.5252 23.339L19.0381 20.9036C18.955 20.488 18.9142 19.8733 19.1935 19.3031ZM18.5941 26.6225C18.3928 26.6225 18.2295 26.4584 18.2295 26.2579V24.0704C18.2295 23.8699 18.3928 23.7058 18.5941 23.7058H18.8551L18.9426 24.1419C18.9443 24.1506 18.9479 24.1584 18.9514 24.1662L18.955 24.1742L18.957 24.1792L18.9587 24.1842V25.8941V26.6232H18.5941V26.6225ZM19.6878 28.9551V28.3863V25.8933V24.2068L20.6117 23.2836C20.9566 22.9395 21.1462 22.4816 21.1462 21.9937V21.8829C21.1462 21.6824 21.3095 21.5183 21.5107 21.5183H28.8024C29.0037 21.5183 29.167 21.6824 29.167 21.8829V21.9711C29.167 22.4692 29.3748 22.9519 29.7365 23.2946L30.6253 24.136V25.8933V28.3863C30.6253 28.406 30.6303 28.4241 30.6353 28.442L30.6376 28.4502L30.6406 28.4622V28.9573C30.6406 29.8432 30.1922 30.6519 29.4404 31.1214L26.908 32.7045C25.8529 33.3644 24.4887 33.3644 23.4328 32.7059L20.8895 31.1214C20.137 30.6511 19.6878 29.8418 19.6878 28.9551ZM12.3962 42.2996C12.3962 38.4802 15.5039 35.3725 19.3232 35.3725H20.1858L18.1777 39.3078C18.091 39.4777 18.15 39.6862 18.3126 39.7847L20.2741 40.9798L19.0148 42.8392C18.9601 42.9194 18.9397 43.0185 18.9594 43.1141L21.0361 53.6017H16.0347C16.0356 53.5971 16.0369 53.5928 16.0381 53.5887L16.0382 53.5886C16.0394 53.5847 16.0406 53.5809 16.0413 53.577C16.0417 53.5746 16.042 53.5721 16.042 53.5696V43.7579C16.042 43.5567 15.8787 43.3933 15.6774 43.3933C15.4762 43.3933 15.3128 43.5567 15.3128 43.7579V53.5696C15.3128 53.5764 15.3146 53.5825 15.3163 53.5885C15.3176 53.5928 15.3188 53.5971 15.3194 53.6017H12.3962V42.2996ZM37.917 42.3003C37.917 42.0312 37.9024 41.7665 37.8754 41.5048C37.868 41.4319 37.8557 41.3601 37.8434 41.2885C37.8365 41.2483 37.8297 41.2082 37.8237 41.1679C37.8177 41.1283 37.812 41.0885 37.8063 41.0487C37.7913 40.9435 37.7763 40.8381 37.7551 40.7355C37.7324 40.6262 37.7029 40.5195 37.6734 40.4127C37.6641 40.3791 37.6548 40.3455 37.6457 40.3119C37.6364 40.277 37.6276 40.2421 37.6188 40.2071L37.6186 40.2065L37.6186 40.2064L37.6186 40.2062L37.6185 40.2061C37.6005 40.1345 37.5824 40.0631 37.5604 39.9932C37.521 39.8676 37.4733 39.7452 37.4257 39.6228L37.4256 39.6228L37.3993 39.555C37.3913 39.5344 37.3836 39.5138 37.3759 39.4932L37.3638 39.4608C37.3411 39.3995 37.3184 39.3384 37.2928 39.2786C37.2409 39.1577 37.1818 39.0406 37.1227 38.9235L37.096 38.8703L37.0786 38.8356L37.0596 38.7974C37.0248 38.7272 36.99 38.657 36.9516 38.5888C36.8881 38.4745 36.818 38.3641 36.7476 38.2533L36.7379 38.2381C36.6716 38.1324 36.6052 38.0274 36.5345 37.9253C36.4681 37.8305 36.3974 37.7386 36.326 37.6468C36.2326 37.525 36.1364 37.4054 36.0357 37.2895C35.9774 37.2231 35.9176 37.1575 35.8571 37.0926C35.7273 36.9533 35.5931 36.8199 35.4539 36.6908C35.4475 36.6848 35.4413 36.6786 35.4352 36.6724L35.4215 36.6582C35.4149 36.6514 35.4083 36.6446 35.4016 36.6378C35.3958 36.6321 35.39 36.6264 35.3839 36.6208C36.315 36.2745 37.287 36.0995 38.2808 36.0995H39.3753V39.3807C39.3753 39.5156 39.4497 39.6388 39.5678 39.7015C39.6218 39.7307 39.6808 39.7453 39.7399 39.7453C39.8106 39.7453 39.8814 39.7249 39.9419 39.684L41.5599 38.6056L41.5453 53.5995H37.917V42.3003ZM57.6045 53.5995H53.2229C53.2233 53.594 53.2247 53.589 53.2262 53.584C53.2279 53.5784 53.2295 53.5728 53.2295 53.5667V43.7557C53.2295 43.5545 53.0662 43.3911 52.8649 43.3911C52.6637 43.3911 52.5003 43.5545 52.5003 43.7557V53.5667C52.5003 53.5728 52.502 53.5784 52.5036 53.584C52.5051 53.589 52.5065 53.594 52.5069 53.5995H46.6386L46.6517 40.1668C46.659 40.123 46.6597 40.08 46.6517 40.037L46.6531 38.5954L48.2872 39.6848C48.3477 39.7256 48.4185 39.746 48.4892 39.746C48.5482 39.746 48.6073 39.7314 48.6613 39.7023C48.7801 39.6381 48.8545 39.5149 48.8545 39.3807V36.0995H49.2191C53.8427 36.0995 57.6045 39.8612 57.6045 44.4849V53.5995ZM41.5618 23.7023C41.7632 23.7023 41.9264 23.5391 41.9264 23.3377C41.9264 23.1364 41.7632 22.9731 41.5618 22.9731C41.3605 22.9731 41.1973 23.1364 41.1973 23.3377C41.1973 23.5391 41.3605 23.7023 41.5618 23.7023ZM46.6663 23.7023C46.8677 23.7023 47.0309 23.5391 47.0309 23.3377C47.0309 23.1364 46.8677 22.9731 46.6663 22.9731C46.465 22.9731 46.3018 23.1364 46.3018 23.3377C46.3018 23.5391 46.465 23.7023 46.6663 23.7023ZM43.7506 29.5375H44.4798C44.681 29.5375 44.8444 29.7008 44.8444 29.902C44.8444 30.1033 44.681 30.2666 44.4798 30.2666H43.7506C43.5494 30.2666 43.386 30.1033 43.386 29.902C43.386 29.7008 43.5494 29.5375 43.7506 29.5375ZM45.9148 27.7299C46.0438 27.8844 46.0227 28.1141 45.8681 28.2432C45.4219 28.6136 44.8218 28.8178 44.1764 28.8178C43.5311 28.8178 42.9303 28.6136 42.4848 28.2432C42.3302 28.1141 42.309 27.8844 42.4381 27.7299C42.5664 27.576 42.7961 27.5534 42.9514 27.6825C43.572 28.1994 44.7802 28.1994 45.4014 27.6825C45.5568 27.5534 45.7864 27.5745 45.9148 27.7299ZM24.7923 30.998H25.5214C25.7227 30.998 25.886 31.1613 25.886 31.3626C25.886 31.5638 25.7227 31.7272 25.5214 31.7272H24.7923C24.591 31.7272 24.4277 31.5638 24.4277 31.3626C24.4277 31.1613 24.591 30.998 24.7923 30.998ZM25.1569 28.0813C24.5538 28.0813 24.0631 27.5906 24.0631 26.9876C24.0631 26.7856 24.2264 26.623 24.4277 26.623C24.6289 26.623 24.7923 26.7863 24.7923 26.9876C24.7923 27.1881 24.9556 27.3522 25.1569 27.3522C25.3581 27.3522 25.5214 27.1881 25.5214 26.9876C25.5214 26.7863 25.6848 26.623 25.886 26.623C26.0873 26.623 26.2506 26.7863 26.2506 26.9876C26.2506 27.5906 25.7599 28.0813 25.1569 28.0813ZM27.6397 28.9308C27.7687 29.0854 27.7476 29.3151 27.593 29.4441C26.9572 29.972 26.0975 30.2637 25.1722 30.2637C24.2469 30.2637 23.3872 29.9728 22.7513 29.4441C22.5968 29.3151 22.5756 29.0854 22.7047 28.9308C22.833 28.7769 23.062 28.7558 23.218 28.8834C24.2133 29.7125 26.131 29.7125 27.1263 28.8834C27.2816 28.7551 27.5113 28.7755 27.6397 28.9308ZM23.348 25.1554C23.348 25.5581 23.0215 25.8846 22.6188 25.8846C22.2161 25.8846 21.8896 25.5581 21.8896 25.1554C21.8896 24.7527 22.2161 24.4263 22.6188 24.4263C23.0215 24.4263 23.348 24.7527 23.348 25.1554ZM23.7736 24.2834C23.8451 24.3796 23.9552 24.4299 24.066 24.4299C24.1418 24.4299 24.2184 24.4066 24.284 24.357C24.4452 24.2367 24.4787 24.0077 24.3584 23.8473C23.9661 23.3216 23.3514 22.9993 22.6981 22.9709C22.6762 22.9679 22.6529 22.9679 22.6317 22.9687L22.6208 22.9686C22.6026 22.9685 22.5846 22.9684 22.5676 22.9709C21.9062 22.9971 21.3047 23.3136 20.9058 23.8466C20.7848 24.0077 20.8183 24.236 20.9794 24.3563C21.1413 24.4773 21.3688 24.4438 21.4899 24.2819C21.7626 23.918 22.1775 23.7059 22.6317 23.6971C23.086 23.7066 23.5009 23.9188 23.7736 24.2834ZM28.4515 25.1554C28.4515 25.5581 28.125 25.8846 27.7223 25.8846C27.3196 25.8846 26.9932 25.5581 26.9932 25.1554C26.9932 24.7527 27.3196 24.4263 27.7223 24.4263C28.125 24.4263 28.4515 24.7527 28.4515 25.1554ZM26.5934 24.2826C26.8661 23.9188 27.281 23.7066 27.7353 23.6978C28.1903 23.7066 28.6052 23.9188 28.8771 24.2834C28.9486 24.3796 29.0587 24.4299 29.1695 24.4299C29.2454 24.4299 29.3219 24.4066 29.3875 24.357C29.5487 24.2367 29.5822 24.0077 29.4619 23.8473C29.0696 23.3216 28.4549 22.9993 27.8016 22.9709C27.779 22.9679 27.7571 22.9679 27.7353 22.9687L27.7246 22.9686C27.7067 22.9685 27.6881 22.9684 27.6711 22.9709C27.0097 22.9971 26.4082 23.3136 26.0093 23.8466C25.8883 24.0077 25.9218 24.236 26.083 24.3563C26.2448 24.4773 26.4731 24.4438 26.5934 24.2826Z" fill="white"/>
</svg>
